<?xml version="1.0" standalone="no"?>
<!DOCTYPE svg PUBLIC "-//W3C//DTD SVG 20010904//EN"
 "http://www.w3.org/TR/2001/REC-SVG-20010904/DTD/svg10.dtd">
<svg version="1.0" xmlns="http://www.w3.org/2000/svg"
 width="37.000000pt" height="34.000000pt" viewBox="0 0 37.000000 34.000000"
 preserveAspectRatio="xMidYMid meet">
<metadata>
Created by potrace 1.16, written by Peter Selinger 2001-2019
</metadata>
<g transform="translate(0.000000,34.000000) scale(0.100000,-0.100000)"
fill="#000000" stroke="none">
<path d="M132 250 c-24 -10 -40 -44 -46 -94 -5 -38 3 -58 18 -49 6 4 4 -1 -4
-11 -13 -16 -12 -18 9 -14 20 2 25 10 28 41 2 25 0 36 -7 32 -5 -3 -10 -1 -10
4 0 6 6 11 14 11 9 0 12 7 9 19 -4 15 0 18 21 14 25 -5 25 -6 9 -19 -17 -12
-16 -13 6 -14 23 0 25 -13 6 -62 -4 -9 3 -14 19 -16 22 -1 24 3 28 44 2 25 0
48 -4 50 -5 3 -8 13 -8 23 0 34 -49 56 -88 41z"/>
</g>
</svg>
